<?xml version="1.0" standalone="no"?>
<!DOCTYPE svg PUBLIC "-//W3C//DTD SVG 20010904//EN"
 "http://www.w3.org/TR/2001/REC-SVG-20010904/DTD/svg10.dtd">
<svg version="1.0" xmlns="http://www.w3.org/2000/svg"
 width="200.000000pt" height="200.000000pt" viewBox="0 0 200.000000 200.000000"
 preserveAspectRatio="xMidYMid meet">
<metadata>
Created by potrace 1.16, written by Peter Selinger 2001-2019
</metadata>
<g transform="translate(0.000000,200.000000) scale(0.100000,-0.100000)"
fill="#000000" stroke="none">
<path d="M320 1195 l0 -45 -45 0 c-43 0 -50 -4 -100 -57 l-54 -58 -1 -75 0
-76 53 -52 53 -52 80 0 80 0 49 50 c33 33 52 47 59 40 6 -6 20 -10 33 -10 16
0 23 6 23 20 0 11 -7 20 -15 20 -9 0 -15 9 -15 25 0 16 6 25 15 25 8 0 15 7
15 15 0 8 -7 15 -15 15 -8 0 -15 7 -15 15 0 8 -7 15 -15 15 -8 0 -15 8 -15 17
0 10 -21 39 -47 65 l-47 48 22 23 c12 13 22 26 22 30 0 16 -43 5 -61 -15 l-18
-23 -1 43 c0 35 -3 42 -20 42 -17 0 -20 -7 -20 -45z m0 -90 c0 -31 37 -36 42
-6 3 17 10 14 56 -25 l52 -46 0 -66 0 -66 -52 -53 c-52 -53 -52 -53 -116 -53
-62 0 -64 1 -118 51 l-54 52 0 66 0 65 52 53 c47 48 57 53 95 53 39 0 43 -2
43 -25z"/>
<path d="M258 1026 c-44 -33 -42 -98 4 -130 33 -24 66 -20 98 13 27 26 31 27
50 14 27 -19 15 -36 -21 -28 -22 5 -29 3 -29 -8 0 -21 51 -28 78 -11 31 20 28
52 -8 72 -38 21 -40 44 -4 40 15 -2 29 2 31 8 5 16 -43 27 -66 15 -14 -8 -23
-6 -36 9 -21 23 -71 26 -97 6z"/>
<path d="M462 1222 c-3 -9 0 -18 7 -20 8 -3 5 -9 -8 -19 -42 -29 -13 -113 39
-113 28 0 60 35 60 65 0 14 -9 34 -20 45 -11 11 -15 22 -9 26 19 11 2 28 -30
30 -21 1 -35 -4 -39 -14z"/>
<path d="M570 1160 c0 -73 2 -80 20 -80 11 0 20 7 20 15 0 19 16 20 27 1 4 -7
33 -16 64 -20 45 -6 60 -4 73 9 22 22 20 41 -6 59 -17 12 -19 16 -6 16 21 0
31 27 12 34 -44 17 -91 -8 -80 -42 4 -11 16 -24 27 -27 29 -10 23 -20 -12 -19
-19 0 -38 9 -45 19 -12 16 -11 22 6 40 11 12 20 24 20 28 0 15 -35 6 -57 -15
l-23 -21 0 41 c0 35 -3 42 -20 42 -18 0 -20 -7 -20 -80z"/>
<path d="M1807 1189 c-15 -9 -17 -18 -12 -50 4 -25 3 -45 -5 -54 -6 -8 -9 -23
-5 -35 5 -15 15 -20 45 -20 21 0 45 3 54 6 21 8 21 60 0 68 -11 4 -13 10 -6
19 5 6 13 27 17 45 7 32 6 32 -32 32 -21 0 -46 -5 -56 -11z"/>
<path d="M800 945 c0 -78 2 -85 20 -85 14 0 20 7 21 23 l0 22 16 -22 c12 -18
25 -23 59 -23 43 0 44 1 44 33 0 17 4 38 9 46 15 23 31 2 31 -40 0 -32 3 -39
20 -39 17 0 20 7 20 49 0 58 -20 86 -56 77 -21 -6 -24 -3 -24 19 0 18 -5 25
-20 25 -17 0 -19 -8 -22 -77 l-3 -78 -19 28 c-17 25 -17 29 -2 46 9 9 16 21
16 24 0 12 -45 8 -58 -5 -9 -9 -12 -4 -12 25 0 30 -4 37 -20 37 -18 0 -20 -7
-20 -85z"/>
<path d="M1278 982 c-27 -3 -28 -5 -28 -63 0 -52 2 -59 20 -59 17 0 20 7 20
45 0 25 5 45 10 45 6 0 10 -20 10 -45 0 -38 3 -45 20 -45 14 0 20 7 20 23 0
33 11 67 21 67 5 0 9 -20 9 -45 0 -38 3 -45 20 -45 18 0 20 7 20 60 0 41 -4
60 -12 61 -54 4 -107 4 -130 1z"/>
</g>
</svg>
